<svg width="1600" height="900" viewBox="0 0 1600 900" fill="none" xmlns="http://www.w3.org/2000/svg">
  <defs>
    <linearGradient id="bg" x1="0" y1="0" x2="1600" y2="900" gradientUnits="userSpaceOnUse">
      <stop stop-color="#EEF4FF"/>
      <stop offset="1" stop-color="#E3ECFA"/>
    </linearGradient>
    <linearGradient id="accent" x1="0" y1="0" x2="1" y2="0">
      <stop offset="0" stop-color="#22D3EE"/>
      <stop offset="1" stop-color="#3B82F6"/>
    </linearGradient>
    <filter id="shadow"><feDropShadow dx="0" dy="16" stdDeviation="16" flood-color="#0F172A" flood-opacity="0.16"/></filter>
  </defs>

  <rect width="1600" height="900" rx="24" fill="url(#bg)"/>
  <rect x="44" y="34" width="1512" height="60" rx="16" fill="#FFFFFF" stroke="#C6D6ED"/>
  <circle cx="82" cy="64" r="7" fill="#FB7185"/>
  <circle cx="108" cy="64" r="7" fill="#FBBF24"/>
  <circle cx="134" cy="64" r="7" fill="#34D399"/>
  <image href="/images/logo.png" x="176" y="47" width="107" height="40"/>
  <text x="302" y="70" fill="#334155" font-family="Pretendard, Inter, sans-serif" font-size="14" font-weight="600">Research Intelligence Console</text>

  <rect x="44" y="116" width="320" height="742" rx="20" fill="#F8FBFF" stroke="#CBD9EE" filter="url(#shadow)"/>
  <text x="78" y="162" fill="#64748B" font-family="Pretendard, Inter, sans-serif" font-size="12" font-weight="700">RESEARCH NAV</text>
  <rect x="72" y="178" width="264" height="40" rx="12" fill="#EAF3FF" stroke="#BFD7FF"/>
  <text x="98" y="203" fill="#1D4ED8" font-family="Pretendard, Inter, sans-serif" font-size="14" font-weight="700">핵심 연구</text>
  <g fill="#475569" font-family="Pretendard, Inter, sans-serif" font-size="14">
    <text x="98" y="246">타당도 검증</text>
    <text x="98" y="282">AI 윤리</text>
    <text x="98" y="318">HR 트렌드</text>
    <text x="98" y="354">기술 백서</text>
  </g>

  <rect x="388" y="116" width="1168" height="210" rx="20" fill="#FFFFFF" stroke="#CBD9EE" filter="url(#shadow)"/>
  <text x="430" y="164" fill="#334155" font-family="Pretendard, Inter, sans-serif" font-size="14" font-weight="600">Astra Featured Study</text>

  <rect x="430" y="186" width="262" height="110" rx="14" fill="#F8FBFF" stroke="#D7E3F4"/>
  <text x="454" y="220" fill="#64748B" font-family="Pretendard, Inter, sans-serif" font-size="12">Validity Coefficient</text>
  <text x="454" y="270" fill="#0EA5E9" font-family="Pretendard, Inter, sans-serif" font-size="44" font-weight="800">0.65</text>

  <rect x="712" y="186" width="262" height="110" rx="14" fill="#F8FBFF" stroke="#D7E3F4"/>
  <text x="736" y="220" fill="#64748B" font-family="Pretendard, Inter, sans-serif" font-size="12">Prediction Accuracy</text>
  <text x="736" y="270" fill="#2563EB" font-family="Pretendard, Inter, sans-serif" font-size="44" font-weight="800">94.2%</text>

  <rect x="994" y="186" width="262" height="110" rx="14" fill="#F8FBFF" stroke="#D7E3F4"/>
  <text x="1018" y="220" fill="#64748B" font-family="Pretendard, Inter, sans-serif" font-size="12">Sample Size</text>
  <text x="1018" y="270" fill="#0F172A" font-family="Pretendard, Inter, sans-serif" font-size="44" font-weight="800">12,000</text>

  <rect x="1276" y="186" width="240" height="110" rx="14" fill="#F8FBFF" stroke="#D7E3F4"/>
  <text x="1300" y="220" fill="#64748B" font-family="Pretendard, Inter, sans-serif" font-size="12">Research Health</text>
  <rect x="1300" y="244" width="192" height="10" rx="5" fill="#E2E8F0"/>
  <rect x="1300" y="244" width="166" height="10" rx="5" fill="url(#accent)"/>

  <rect x="388" y="346" width="760" height="512" rx="20" fill="#FFFFFF" stroke="#CBD9EE" filter="url(#shadow)"/>
  <text x="430" y="394" fill="#0F172A" font-family="Pretendard, Inter, sans-serif" font-size="18" font-weight="700">Correlation Distribution</text>
  <rect x="430" y="416" width="676" height="402" rx="14" fill="#F8FBFF" stroke="#D7E3F4"/>
  <line x1="470" y1="774" x2="1062" y2="774" stroke="#CEDAEE"/>
  <line x1="470" y1="460" x2="470" y2="774" stroke="#CEDAEE"/>
  <polyline points="484,752 536,720 590,694 644,666 696,632 748,604 804,566 862,530 918,492 980,456 1040,430" stroke="url(#accent)" stroke-width="4" fill="none"/>
  <g fill="#38BDF8">
    <circle cx="590" cy="694" r="4.5"/><circle cx="748" cy="604" r="4.5"/><circle cx="918" cy="492" r="4.5"/>
  </g>

  <rect x="1170" y="346" width="386" height="512" rx="20" fill="#FFFFFF" stroke="#CBD9EE" filter="url(#shadow)"/>
  <text x="1210" y="394" fill="#0F172A" font-family="Pretendard, Inter, sans-serif" font-size="18" font-weight="700">Research Notes</text>
  <rect x="1210" y="418" width="306" height="1" fill="#D6E2F4"/>
  <rect x="1210" y="440" width="286" height="10" rx="5" fill="#D7E3F4"/>
  <rect x="1210" y="460" width="254" height="10" rx="5" fill="#D7E3F4"/>
  <rect x="1210" y="480" width="294" height="10" rx="5" fill="#D7E3F4"/>
  <rect x="1210" y="500" width="268" height="10" rx="5" fill="#D7E3F4"/>

  <rect x="1210" y="540" width="306" height="112" rx="14" fill="#F8FBFF" stroke="#D7E3F4"/>
  <text x="1236" y="576" fill="#64748B" font-family="Pretendard, Inter, sans-serif" font-size="12">Core Finding</text>
  <text x="1236" y="622" fill="#0EA5E9" font-family="Pretendard, Inter, sans-serif" font-size="38" font-weight="800">r = 0.65</text>

  <rect x="1210" y="672" width="306" height="146" rx="14" fill="#F8FBFF" stroke="#D7E3F4"/>
  <text x="1236" y="708" fill="#334155" font-family="Pretendard, Inter, sans-serif" font-size="14" font-weight="600">Action</text>
  <rect x="1236" y="726" width="156" height="38" rx="10" fill="#EAF3FF" stroke="#BFD7FF"/>
  <text x="1270" y="750" fill="#1D4ED8" font-family="Pretendard, Inter, sans-serif" font-size="13" font-weight="700">View Paper</text>
</svg>
