<svg width="1440" height="900" viewBox="0 0 1440 900" fill="none" xmlns="http://www.w3.org/2000/svg">
  <defs>
    <linearGradient id="page" x1="0" y1="0" x2="1440" y2="900" gradientUnits="userSpaceOnUse">
      <stop stop-color="#EAF1FF"/>
      <stop offset="1" stop-color="#E2EAF7"/>
    </linearGradient>
    <linearGradient id="hero" x1="0" y1="0" x2="980" y2="280" gradientUnits="userSpaceOnUse">
      <stop stop-color="#FDFEFF"/>
      <stop offset="1" stop-color="#F2F6FF"/>
    </linearGradient>
    <linearGradient id="cyan" x1="0" y1="0" x2="1" y2="0">
      <stop offset="0" stop-color="#22D3EE"/>
      <stop offset="1" stop-color="#3B82F6"/>
    </linearGradient>
    <filter id="shadow" x="0" y="0" width="200%" height="200%">
      <feDropShadow dx="0" dy="18" stdDeviation="18" flood-color="#0F172A" flood-opacity="0.16"/>
    </filter>
    <filter id="soft" x="0" y="0" width="200%" height="200%">
      <feDropShadow dx="0" dy="8" stdDeviation="8" flood-color="#0F172A" flood-opacity="0.08"/>
    </filter>
  </defs>

  <rect width="1440" height="900" rx="32" fill="url(#page)"/>

  <rect x="44" y="28" width="1352" height="56" rx="16" fill="#FFFFFF" stroke="#C4D4ED" filter="url(#soft)"/>
  <circle cx="78" cy="56" r="7" fill="#FB7185"/>
  <circle cx="104" cy="56" r="7" fill="#FBBF24"/>
  <circle cx="130" cy="56" r="7" fill="#34D399"/>
  <text x="170" y="61" fill="#0F172A" font-family="Pretendard, Inter, sans-serif" font-size="14" font-weight="700">ASTRA Platform • Hiring Intelligence</text>
  <rect x="1178" y="41" width="190" height="30" rx="10" fill="#EFF6FF" stroke="#BFDBFE"/>
  <text x="1204" y="60" fill="#1D4ED8" font-family="Pretendard, Inter, sans-serif" font-size="12" font-weight="600">Generate Weekly Report</text>

  <rect x="44" y="104" width="266" height="752" rx="22" fill="#F8FBFF" stroke="#C8D7EE" filter="url(#shadow)"/>
  <text x="76" y="148" fill="#64748B" font-family="Pretendard, Inter, sans-serif" font-size="12" font-weight="600">WORKSPACE</text>
  <rect x="72" y="164" width="210" height="40" rx="12" fill="#EAF3FF" stroke="#B9D3FF"/>
  <text x="96" y="188" fill="#1D4ED8" font-family="Pretendard, Inter, sans-serif" font-size="14" font-weight="700">Overview</text>
  <g fill="#475569" font-family="Pretendard, Inter, sans-serif" font-size="14">
    <text x="96" y="236">Candidate Pipeline</text>
    <text x="96" y="274">Assessment Studio</text>
    <text x="96" y="312">Interview QA</text>
    <text x="96" y="350">Bias Monitor</text>
    <text x="96" y="388">Org Insights</text>
  </g>
  <rect x="72" y="732" width="210" height="96" rx="14" fill="#FFFFFF" stroke="#D3DEEE"/>
  <text x="94" y="762" fill="#64748B" font-family="Pretendard, Inter, sans-serif" font-size="12">Model Health</text>
  <text x="94" y="796" fill="#0EA5E9" font-family="Pretendard, Inter, sans-serif" font-size="28" font-weight="800">98.4</text>
  <text x="168" y="796" fill="#16A34A" font-family="Pretendard, Inter, sans-serif" font-size="14" font-weight="700">+1.8</text>

  <rect x="330" y="104" width="1066" height="220" rx="22" fill="url(#hero)" stroke="#C8D7EE" filter="url(#shadow)"/>
  <text x="368" y="152" fill="#334155" font-family="Pretendard, Inter, sans-serif" font-size="14" font-weight="600">Recruitment Performance Snapshot</text>

  <g>
    <rect x="368" y="172" width="228" height="124" rx="16" fill="#FFFFFF" stroke="#D3DEEE"/>
    <text x="392" y="206" fill="#64748B" font-family="Pretendard, Inter, sans-serif" font-size="12">Prediction Accuracy</text>
    <text x="392" y="256" fill="#0EA5E9" font-family="Pretendard, Inter, sans-serif" font-size="44" font-weight="800">94.2%</text>
  </g>
  <g>
    <rect x="614" y="172" width="228" height="124" rx="16" fill="#FFFFFF" stroke="#D3DEEE"/>
    <text x="638" y="206" fill="#64748B" font-family="Pretendard, Inter, sans-serif" font-size="12">Time to Evaluate</text>
    <text x="638" y="256" fill="#2563EB" font-family="Pretendard, Inter, sans-serif" font-size="44" font-weight="800">3s</text>
  </g>
  <g>
    <rect x="860" y="172" width="228" height="124" rx="16" fill="#FFFFFF" stroke="#D3DEEE"/>
    <text x="884" y="206" fill="#64748B" font-family="Pretendard, Inter, sans-serif" font-size="12">Avg. Confidence</text>
    <text x="884" y="256" fill="#0F172A" font-family="Pretendard, Inter, sans-serif" font-size="44" font-weight="800">0.91</text>
  </g>
  <g>
    <rect x="1106" y="172" width="252" height="124" rx="16" fill="#FFFFFF" stroke="#D3DEEE"/>
    <text x="1130" y="206" fill="#64748B" font-family="Pretendard, Inter, sans-serif" font-size="12">Hiring Efficiency</text>
    <rect x="1130" y="230" width="204" height="10" rx="5" fill="#E2E8F0"/>
    <rect x="1130" y="230" width="166" height="10" rx="5" fill="url(#cyan)"/>
    <text x="1130" y="264" fill="#0369A1" font-family="Pretendard, Inter, sans-serif" font-size="13" font-weight="700">+31% YoY</text>
  </g>

  <rect x="330" y="346" width="690" height="510" rx="22" fill="#FFFFFF" stroke="#C8D7EE" filter="url(#shadow)"/>
  <text x="366" y="392" fill="#0F172A" font-family="Pretendard, Inter, sans-serif" font-size="18" font-weight="700">Competency Trend by Quarter</text>
  <text x="366" y="416" fill="#64748B" font-family="Pretendard, Inter, sans-serif" font-size="12">Behavioral indicators and success contribution score</text>
  <rect x="366" y="438" width="618" height="376" rx="16" fill="#F8FBFF" stroke="#D6E1F2"/>
  <g stroke="#DBE5F4" stroke-width="1">
    <line x1="402" y1="770" x2="950" y2="770"/><line x1="402" y1="706" x2="950" y2="706"/><line x1="402" y1="642" x2="950" y2="642"/><line x1="402" y1="578" x2="950" y2="578"/><line x1="402" y1="514" x2="950" y2="514"/>
  </g>
  <g>
    <rect x="430" y="650" width="44" height="120" rx="8" fill="#7DD3FC"/>
    <rect x="498" y="604" width="44" height="166" rx="8" fill="#60A5FA"/>
    <rect x="566" y="562" width="44" height="208" rx="8" fill="#3B82F6"/>
    <rect x="634" y="518" width="44" height="252" rx="8" fill="#2563EB"/>
    <rect x="702" y="474" width="44" height="296" rx="8" fill="#1D4ED8"/>
    <rect x="770" y="530" width="44" height="240" rx="8" fill="#0EA5E9"/>
    <rect x="838" y="450" width="44" height="320" rx="8" fill="#0284C7"/>
  </g>

  <rect x="1042" y="346" width="354" height="510" rx="22" fill="#FFFFFF" stroke="#C8D7EE" filter="url(#shadow)"/>
  <text x="1078" y="392" fill="#0F172A" font-family="Pretendard, Inter, sans-serif" font-size="18" font-weight="700">Top Signals</text>
  <text x="1078" y="416" fill="#64748B" font-family="Pretendard, Inter, sans-serif" font-size="12">Real-time inferred attributes</text>

  <g>
    <rect x="1078" y="442" width="282" height="92" rx="14" fill="#F8FBFF" stroke="#D6E1F2"/>
    <text x="1102" y="472" fill="#334155" font-family="Pretendard, Inter, sans-serif" font-size="14" font-weight="600">Leadership</text>
    <rect x="1102" y="486" width="234" height="9" rx="4.5" fill="#E2E8F0"/>
    <rect x="1102" y="486" width="212" height="9" rx="4.5" fill="url(#cyan)"/>
    <text x="1298" y="472" fill="#0369A1" font-family="Pretendard, Inter, sans-serif" font-size="12" font-weight="700">92%</text>
  </g>
  <g>
    <rect x="1078" y="548" width="282" height="92" rx="14" fill="#F8FBFF" stroke="#D6E1F2"/>
    <text x="1102" y="578" fill="#334155" font-family="Pretendard, Inter, sans-serif" font-size="14" font-weight="600">Execution</text>
    <rect x="1102" y="592" width="234" height="9" rx="4.5" fill="#E2E8F0"/>
    <rect x="1102" y="592" width="198" height="9" rx="4.5" fill="url(#cyan)"/>
    <text x="1286" y="578" fill="#0369A1" font-family="Pretendard, Inter, sans-serif" font-size="12" font-weight="700">85%</text>
  </g>
  <g>
    <rect x="1078" y="654" width="282" height="170" rx="14" fill="#F8FBFF" stroke="#D6E1F2"/>
    <text x="1102" y="684" fill="#334155" font-family="Pretendard, Inter, sans-serif" font-size="14" font-weight="600">AI Comment</text>
    <text x="1102" y="706" fill="#475569" font-family="Pretendard, Inter, sans-serif" font-size="10">협업 중심 행동 시그널이 직무 성공률과 높은 상관을 보였습니다.</text>
    <text x="1102" y="722" fill="#475569" font-family="Pretendard, Inter, sans-serif" font-size="10">면접 응답의 실행 구체성이 상위 15% 구간에 위치합니다.</text>
    <text x="1102" y="738" fill="#475569" font-family="Pretendard, Inter, sans-serif" font-size="10">역량 프로파일 매칭 결과, 조직문화 적합도는 안정권으로 분류됩니다.</text>
    <text x="1102" y="754" fill="#475569" font-family="Pretendard, Inter, sans-serif" font-size="10">권장 액션: 2차 인터뷰에서 리더십 사례를 추가 검증하세요.</text>
    <rect x="1102" y="776" width="144" height="30" rx="10" fill="#E8F2FF" stroke="#BFD7FF"/>
    <text x="1131" y="795" fill="#1D4ED8" font-family="Pretendard, Inter, sans-serif" font-size="12" font-weight="700">View Detail</text>
  </g>
</svg>
